<svg width="380" height="200" xmlns="http://www.w3.org/2000/svg" clip-rule="evenodd" version="1.1">

 <g>
  <title>Layer 1</title>
  <g stroke="null" id="svg_201">
   <g stroke="null" id="svg_1">
    <path stroke="null" id="svg_2" opacity="0.024" d="m153.89996,7.41089c-18.86974,-0.37009 -37.72692,0 -56.57152,1.11138c1.42162,1.87378 2.8181,3.72533 4.19048,5.55688c3.79029,7.92966 9.02839,14.78351 15.71431,20.56044c0.99314,0.53679 2.04077,0.72128 3.14286,0.55569c0,1.11138 0,2.22275 0,3.33413c1.1021,-0.16559 2.14972,0.01889 3.14286,0.55569c3.37543,2.34278 5.12077,5.6769 5.2381,10.00238c-1.31267,4.25323 -1.31267,8.51313 0,12.78081c0.18229,2.43725 -0.51648,4.47551 -2.09524,6.11256c0.76686,9.53227 0.76686,18.60776 0,27.22869c-0.69876,-0.37009 -1.39648,-0.74129 -2.09524,-1.11138c0,-0.37009 0,-0.74129 0,-1.11138c1.39648,-0.37009 1.39648,-0.74129 0,-1.11138c0.28705,-10.98706 0.63591,-22.2853 1.04762,-33.89694c-0.81505,-3.4975 -1.68772,-7.01611 -2.61905,-10.55806c-8.77487,-8.94212 -17.8546,-17.46193 -27.23814,-25.56163c-2.43362,-2.60284 -4.00505,-5.75137 -4.71429,-9.44669c1.13143,-2.87179 2.87677,-5.28014 5.2381,-7.22394c19.34013,0.72684 38.54615,1.46813 57.61914,2.22275z" fill="#030303"/>
   </g>
   <g stroke="null" id="svg_3">
    <path stroke="null" id="svg_4" opacity="0.038" d="m23.995,8.52227c0,34.45263 0,68.90526 0,103.35789c-2.17486,2.41168 -2.34981,5.00452 -0.52381,7.77963c22.68937,23.70897 45.21321,47.23345 67.57153,70.57233c1.39648,0.74129 2.794,0.74129 4.19048,0c4.23448,-3.54084 7.37734,-7.80074 9.42859,-12.78081c0.69876,-1.11138 1.39648,-2.22275 2.09524,-3.33413c0.94705,-0.78797 1.29591,-1.89934 1.04762,-3.33413c2.42734,3.48861 2.60229,7.19282 0.52381,11.11375c-2.96791,3.88981 -6.28572,7.40954 -9.9524,10.55806c-1.79353,1.94602 -3.88877,2.68731 -6.28572,2.22275c-2.47658,-2.18052 -5.27058,-3.84758 -8.38097,-5.00119c-1.59972,-1.88156 -2.9962,-3.91982 -4.19048,-6.11256c-4.56448,-4.84226 -9.45373,-9.28776 -14.66669,-13.3365c0.34886,-0.37009 0.69876,-0.74129 1.04762,-1.11138c-3.41315,-2.27054 -6.38106,-4.67889 -8.90478,-7.22394c-0.87686,-2.60506 -2.27438,-4.82781 -4.19048,-6.66825c-0.34886,0.37009 -0.69876,0.74129 -1.04762,1.11138c-8.3663,-11.46606 -18.14374,-21.46843 -29.33338,-30.00713c-2.0041,-3.69643 -3.57553,-7.58625 -4.71429,-11.66944c0.64533,-2.93403 0.29648,-5.89696 -1.04762,-8.891c0.76162,-2.36056 1.46038,-4.76891 2.09524,-7.22394c-0.98057,-27.47542 -1.32943,-54.51851 -1.04762,-81.13039c-0.2221,-4.99897 1.87315,-7.96189 6.28572,-8.891z" fill="#020202"/>
   </g>
   <g stroke="null" id="svg_5">
    <path stroke="null" id="svg_6" opacity="0.996" d="m25.04262,9.63364c4.19048,0 8.38097,0 12.57145,0c-2.06381,3.38747 -1.3661,5.79582 2.09524,7.22394c-1.39648,0.74129 -1.39648,1.48146 0,2.22275c1.04762,0.37009 2.09524,0.74129 3.14286,1.11138c-2.43153,3.47082 -2.08162,6.80495 1.04762,10.00238c-1.10105,1.53925 -2.49753,2.65063 -4.19048,3.33413c1.14714,2.43947 2.19477,4.84782 3.14286,7.22394c-1.22362,1.56259 -0.87476,2.85846 1.04762,3.88981c-2.45353,1.54703 -2.45353,2.47281 0,2.77844c0,14.81797 0,29.63704 0,44.45501c-1.52324,1.1336 -1.8721,2.43058 -1.04762,3.88981c-1.32314,1.89489 -1.67305,3.74756 -1.04762,5.55688c-1.70238,0.948 -2.05124,2.05938 -1.04762,3.33413c-1.53686,1.22029 -2.41058,2.88735 -2.61905,5.00119c-1.48657,1.06692 -3.058,1.9927 -4.71429,2.77844c2.0261,1.92157 2.0261,4.14432 0,6.66825c0.34886,0.37009 0.69876,0.74129 1.04762,1.11138c-0.95962,0.30896 -1.65734,0.86465 -2.09524,1.66706c-2.794,-2.22275 -5.2381,-4.81559 -7.33334,-7.77963c-0.17495,-15.19361 0,-30.38166 0.52381,-45.56638c0.17495,14.46233 0.69876,28.9102 1.57143,43.34363c0.82448,-0.82464 1.52219,-1.75042 2.09524,-2.77844c-0.54895,-5.12122 -0.89886,-10.30801 -1.04762,-15.55925c0.18333,-1.84266 0.8821,-3.32412 2.09524,-4.4455c-0.69876,-0.37009 -1.39648,-0.74129 -2.09524,-1.11138c3.33039,-3.98206 6.82315,-6.7605 10.47621,-8.33531c-0.55,-0.76907 -1.24876,-1.32476 -2.09524,-1.66706c0.97429,-1.32698 1.67305,-2.80845 2.09524,-4.4455c-1.25191,-1.70374 -1.25191,-3.3708 0,-5.00119c-0.56572,-1.387 -1.26448,-2.68397 -2.09524,-3.88981c1.30324,-0.50679 2.17591,0.0489 2.61905,1.66706c2.55096,-2.15273 2.72591,-4.18988 0.52381,-6.11256c2.50486,-1.45479 2.50486,-2.56617 0,-3.33413c2.794,-0.74129 2.794,-1.48146 0,-2.22275c1.08429,-1.67484 0.90933,-3.34191 -0.52381,-5.00119c-1.57876,-3.25188 -4.02391,-5.47463 -7.33334,-6.66825c-1.94019,-1.92268 -1.76629,-3.21854 0.52381,-3.88981c-2.28277,-0.49123 -2.98048,-1.6026 -2.09524,-3.33413c-0.52381,-0.55569 -1.04762,-1.11138 -1.57143,-1.66706c-0.68514,1.3292 -1.20895,1.3292 -1.57143,0c0.49972,-1.08692 1.19743,-2.0127 2.09524,-2.77844c-2.77619,-3.56418 -2.60229,-4.11987 0.52381,-1.66706c0.41695,-3.03628 1.98838,-5.07343 4.71429,-6.11256c-1.188,-1.12916 -0.83914,-1.87044 1.04762,-2.22275c-1.13981,-2.39057 -3.06115,-4.79892 -5.76191,-7.22394c0.08067,1.37588 -0.09324,2.48726 -0.52381,3.33413c-1.13562,-1.29475 -2.00829,-2.77622 -2.61905,-4.4455c-0.16552,17.98205 -0.51438,36.13414 -1.04762,54.45738c-0.52381,-19.26013 -0.69876,-38.5236 -0.52381,-57.79151z" fill="#666e75"/>
   </g>
   <g stroke="null" id="svg_7">
    <path stroke="null" id="svg_8" opacity="0.996" d="m153.89996,7.41089c0,0.37009 0,0.74129 0,1.11138c-5.58696,0 -11.17497,0 -16.76193,0c-6.64401,-0.18449 -13.27859,0 -19.90479,0.55569c0.95962,0.41565 1.83334,0.97134 2.61905,1.66706c-0.32581,1.59482 -0.1519,3.07629 0.52381,4.4455c-0.55,0.76907 -1.24876,1.32476 -2.09524,1.66706c-0.33105,3.03628 0.01781,5.81472 1.04762,8.33531c-0.88,1.37255 -1.92762,2.48392 -3.14286,3.33413c-4.88925,-4.81559 -9.77744,-9.63229 -14.66669,-14.44788c-1.37238,-1.83155 -2.76886,-3.6831 -4.19048,-5.55688c18.8446,-1.11138 37.70177,-1.48146 56.57152,-1.11138z" fill="#aeb3b7"/>
   </g>
   <g stroke="null" id="svg_9">
    <path stroke="null" id="svg_10" opacity="0.995" d="m137.13803,8.52227c5.58696,0 11.17497,0 16.76193,0c0,31.48859 0,62.9783 0,94.46689c-1.034,-5.34016 -1.38391,-10.89703 -1.04762,-16.67063c0,-4.81559 0,-9.63229 0,-14.44788c1.52429,-8.86322 -0.57095,-16.45836 -6.28572,-22.78319c-3.30629,-2.53505 -6.79801,-3.64642 -10.47621,-3.33413c1.63534,-0.35342 2.85791,-1.27919 3.66667,-2.77844c1.18695,1.90156 2.75839,2.45725 4.71429,1.66706c-2.32886,-0.72462 -3.55143,-2.39168 -3.66667,-5.00119c-0.95753,1.28253 -1.83019,1.09693 -2.61905,-0.55569c1.04762,-0.37009 2.09524,-0.74129 3.14286,-1.11138c-3.24553,-5.88251 -5.69068,-11.81058 -7.33334,-17.782c1.01829,-2.34611 1.89096,-4.75446 2.61905,-7.22394c1.15029,-1.63039 2.72172,-2.55727 4.71429,-2.77844c-1.63219,-0.23339 -3.02867,-0.78908 -4.19048,-1.66706z" fill="#cbd1d5"/>
   </g>
   <g stroke="null" id="svg_11">
    <path stroke="null" id="svg_12" opacity="0.004" d="m155.9952,20.74739c1.39648,0.74129 1.39648,0.74129 0,0z" fill="#000000"/>
   </g>
   <g stroke="null" id="svg_13">
    <path stroke="null" id="svg_14" opacity="0.004" d="m155.9952,24.08152c1.39648,0.74129 1.39648,0.74129 0,0z" fill="#000000"/>
   </g>
   <g stroke="null" id="svg_15">
    <path stroke="null" id="svg_16" opacity="0.027" d="m188.47144,27.41564c0,7.40954 0,14.81797 0,22.2275c0,9.26109 0,18.52329 0,27.78438c0,5.55688 0,11.11375 0,16.67063c0,5.92696 0,11.85504 0,17.782c0,4.4455 0,8.891 0,13.3365c0,5.92696 0,11.85504 0,17.782c6.48477,0.35897 12.7705,-0.01111 18.85717,-1.11138c0,-0.37009 0,-0.74129 0,-1.11138c0.34886,0 0.69876,0 1.04762,0c1.43419,5.41017 -0.13724,9.48559 -4.71429,12.22513c-0.43371,-0.5079 -0.95753,-0.8791 -1.57143,-1.11138c-5.34182,2.4917 -10.57992,2.67619 -15.71431,0.55569c-1.342,-1.56593 -2.38962,-3.23299 -3.14286,-5.00119c-0.69562,-2.9307 -1.39438,-5.89362 -2.09524,-8.891c1.16705,-26.52408 1.16705,-53.75277 0,-81.68608c0.726,-9.40557 1.59972,-18.85226 2.61905,-28.34007c1.53791,-1.70707 3.10934,-2.07827 4.71429,-1.11138z" fill="#080809"/>
   </g>
   <g stroke="null" id="svg_17">
    <path stroke="null" id="svg_18" opacity="0.127" d="m210.47148,27.41564c-4.19048,0 -8.38097,0 -12.57145,0c-3.14286,0 -6.28572,0 -9.42859,0c1.35562,-3.16964 2.92705,-3.54084 4.71429,-1.11138c3.03077,0.20338 6.17363,-0.16782 9.42859,-1.11138c2.73115,0.69239 5.3502,1.43367 7.85716,2.22275z" fill="#141518"/>
   </g>
   <g stroke="null" id="svg_21">
    <path stroke="null" id="svg_22" opacity="0.027" d="m296.37637,27.41564c0,0.74129 0,1.48146 0,2.22275c-1.49915,0.42343 -2.37181,1.53481 -2.61905,3.33413c-0.17495,4.2599 -0.34886,8.52091 -0.52381,12.78081c0.20114,32.70222 0.72495,65.85898 1.57143,99.46808c0.52381,0.55569 1.04762,1.11138 1.57143,1.66706c20.25365,0.74129 40.50835,0.74129 60.762,0c1.54315,-0.78908 2.24191,-2.08494 2.09524,-3.88981c0.69876,0 1.04762,-0.37009 1.04762,-1.11138c0,-5.18679 0,-10.37246 0,-15.55925c0,-0.74129 0,-1.48146 0,-2.22275c0.65686,7.10724 1.52953,14.14669 2.61905,21.11613c-2.14343,2.08494 -4.06372,4.30769 -5.76191,6.66825c-5.01706,1.01024 -9.9063,1.01024 -14.66669,0c-0.34886,-1.48146 -0.69876,-1.48146 -1.04762,0c-11.73859,0.23672 -23.08851,-0.13337 -34.04767,-1.11138c-1.73696,0.19449 -3.13343,0.93578 -4.19048,2.22275c-1.37867,-2.80956 -2.60124,-2.80956 -3.66667,0c-4.7321,-0.84909 -7.52506,-3.81313 -8.38097,-8.891c0.85486,-36.38754 0.85486,-72.32163 0,-107.80339c0.27343,-2.72287 0.97219,-5.31571 2.09524,-7.77963c0.86429,-0.98468 1.91191,-1.35477 3.14286,-1.11138z" fill="#020202"/>
   </g>
   <g stroke="null" id="svg_23">
    <path stroke="null" id="svg_24" opacity="0.997" d="m37.61406,9.63364c3.28324,0.82353 6.42611,1.9349 9.42859,3.33413c0,1.11138 0,2.22275 0,3.33413c1.39648,0 2.794,0 4.19048,0c-0.02933,2.31388 0.66943,4.35215 2.09524,6.11256c-2.18848,1.74708 -2.18848,3.78423 0,6.11256c-0.34886,0.74129 -0.69876,1.48146 -1.04762,2.22275c1.37238,3.4786 3.11772,7.18282 5.2381,11.11375c-1.22362,1.56259 -0.87476,2.85846 1.04762,3.88981c-0.69876,0.37009 -1.39648,0.74129 -2.09524,1.11138c2.71334,3.74533 3.76096,7.81964 3.14286,12.22513c2.25238,1.32476 2.95115,2.99182 2.09524,5.00119c-5.2381,-4.81559 -10.12735,-10.00238 -14.66669,-15.55925c-0.35829,-0.93133 -1.056,-1.30253 -2.09524,-1.11138c-0.34886,0 -0.69876,0 -1.04762,0c-2.45353,-0.30563 -2.45353,-1.2314 0,-2.77844c-1.92238,-1.03136 -2.27124,-2.32722 -1.04762,-3.88981c-0.9481,-2.37612 -1.99572,-4.78447 -3.14286,-7.22394c1.69295,-0.6835 3.08943,-1.79487 4.19048,-3.33413c-3.12924,-3.19743 -3.47915,-6.53155 -1.04762,-10.00238c-1.04762,-0.37009 -2.09524,-0.74129 -3.14286,-1.11138c-1.39648,-0.74129 -1.39648,-1.48146 0,-2.22275c-3.46134,-1.42812 -4.15905,-3.83647 -2.09524,-7.22394z" fill="#6e757c"/>
   </g>
   <g stroke="null" id="svg_25">
    <path stroke="null" id="svg_26" opacity="0.996" d="m73.23317,38.5294c-0.69876,0 -1.04762,0.37009 -1.04762,1.11138c-0.56886,0.06668 -0.91772,0.43677 -1.04762,1.11138c0.84438,2.52949 1.892,5.12233 3.14286,7.77963c-2.56458,4.73668 -2.56458,8.99769 0,12.78081c-0.748,1.49258 -0.3981,2.97404 1.04762,4.4455c-2.31419,1.06359 -2.14029,2.36056 0.52381,3.88981c1.16286,2.10828 1.33676,4.14543 0.52381,6.11256c2.27648,1.72597 2.97524,3.76312 2.09524,6.11256c-5.93687,-5.55688 -11.52383,-11.48384 -16.76193,-17.782c0.85591,-2.00937 0.15714,-3.67643 -2.09524,-5.00119c0.6181,-4.40549 -0.42952,-8.47979 -3.14286,-12.22513c0.69876,-0.37009 1.39648,-0.74129 2.09524,-1.11138c-1.92238,-1.03136 -2.27124,-2.32722 -1.04762,-3.88981c-2.12038,-3.93093 -3.86572,-7.63515 -5.2381,-11.11375c0.34886,-0.74129 0.69876,-1.48146 1.04762,-2.22275c-2.18848,-2.32833 -2.18848,-4.36548 0,-6.11256c-1.42581,-1.76042 -2.12457,-3.79868 -2.09524,-6.11256c-1.39648,0 -2.794,0 -4.19048,0c0,-1.11138 0,-2.22275 0,-3.33413c-3.00248,-1.39922 -6.14534,-2.5106 -9.42859,-3.33413c-4.19048,0 -8.38097,0 -12.57145,0c0,-0.74129 0,-1.48146 0,-2.22275c2.948,-0.73906 6.09087,-1.10915 9.42859,-1.11138c3.96524,-0.09891 7.80687,0.45678 11.52383,1.66706c9.67687,9.70675 18.7566,19.89362 27.23814,30.56282z" fill="#7c8187"/>
   </g>
   <g stroke="null" id="svg_27">
    <path stroke="null" id="svg_28" opacity="0.004" d="m155.9952,28.52702c1.07381,0.44122 1.24876,1.18139 0.52381,2.22275c-0.4861,-0.66016 -0.66105,-1.40144 -0.52381,-2.22275z" fill="#000000"/>
   </g>
   <g stroke="null" id="svg_29">
    <path stroke="null" id="svg_30" opacity="0.996" d="m188.47144,27.41564c3.14286,0 6.28572,0 9.42859,0c-0.79933,0.85354 -1.84696,1.40922 -3.14286,1.66706c3.3461,3.08073 6.48896,6.41486 9.42859,10.00238c-0.34886,0.37009 -0.69876,0.74129 -1.04762,1.11138c2.58972,1.77931 3.63734,4.00206 3.14286,6.66825c1.98419,1.22362 2.68296,2.70509 2.09524,4.4455c1.04762,0.37009 2.09524,0.74129 3.14286,1.11138c1.56829,6.65714 5.75877,12.3985 12.57145,17.22632c0.78676,-0.97356 1.31057,-2.08494 1.57143,-3.33413c0.34886,1.48146 0.69876,2.96404 1.04762,4.4455c0.34886,-0.74129 0.69876,-1.48146 1.04762,-2.22275c2.12457,3.54751 4.74363,6.51155 7.85716,8.891c-0.06286,0.60348 -0.41171,0.97356 -1.04762,1.11138c-3.99667,-2.89069 -8.18716,-5.48353 -12.57145,-7.77963c-0.61391,0.23228 -1.13772,0.60348 -1.57143,1.11138c-1.52953,-2.13606 -3.27591,-2.87735 -5.2381,-2.22275c-1.122,-2.90402 -1.99572,-2.90402 -2.61905,0c-1.54629,-2.52171 -3.11772,-5.11455 -4.71429,-7.77963c-0.52381,9.62451 -0.69772,19.2568 -0.52381,28.89576c-1.78724,-6.38596 -3.00981,-13.05421 -3.66667,-20.00475c-0.48714,-1.59038 -1.36086,-2.88624 -2.61905,-3.88981c1.42476,-2.15385 1.07591,-4.0054 -1.04762,-5.55688c0,-1.85266 0,-3.70421 0,-5.55688c-2.90819,-1.97714 -2.55934,-3.08851 1.04762,-3.33413c-0.91772,-1.76153 -2.31419,-2.8729 -4.19048,-3.33413c0.89781,-0.76574 1.59553,-1.69151 2.09524,-2.77844c-1.39648,-1.11138 -1.39648,-2.22275 0,-3.33413c-2.17486,-1.98714 -4.44505,-3.83869 -6.80953,-5.55688c-1.92238,3.93871 -3.14496,8.01302 -3.66667,12.22513c0,-7.40954 0,-14.81797 0,-22.2275z" fill="#b2b8bc"/>
   </g>
   <g stroke="null" id="svg_31">
    <path stroke="null" id="svg_32" opacity="0.997" d="m197.90003,27.41564c4.19048,0 8.38097,0 12.57145,0c1.22991,1.12693 1.92762,2.6084 2.09524,4.4455c-0.07648,1.69707 0.62229,2.80845 2.09524,3.33413c0.87791,0.38009 1.22781,1.12027 1.04762,2.22275c-0.07648,1.69707 0.62229,2.80845 2.09524,3.33413c1.22991,1.12693 1.92762,2.6084 2.09524,4.4455c-0.07648,1.69707 0.62229,2.80845 2.09524,3.33413c0.87791,0.38009 1.22781,1.12027 1.04762,2.22275c-0.07648,1.69707 0.62229,2.80845 2.09524,3.33413c2.1581,3.04517 3.90343,6.37929 5.2381,10.00238c-0.07648,1.69707 0.62229,2.80845 2.09524,3.33413c1.22991,1.12693 1.92762,2.6084 2.09524,4.4455c-0.07648,1.69707 0.62229,2.80845 2.09524,3.33413c0.18019,1.10248 -0.16971,1.84266 -1.04762,2.22275c-3.11353,-2.37945 -5.73258,-5.34349 -7.85716,-8.891c-0.34886,0.74129 -0.69876,1.48146 -1.04762,2.22275c-0.34886,-1.48146 -0.69876,-2.96404 -1.04762,-4.4455c-0.26086,1.24919 -0.78467,2.36056 -1.57143,3.33413c-6.81268,-4.82781 -11.00316,-10.56918 -12.57145,-17.22632c-1.04762,-0.37009 -2.09524,-0.74129 -3.14286,-1.11138c0.58772,-1.74041 -0.11105,-3.22188 -2.09524,-4.4455c0.49448,-2.66619 -0.55314,-4.88894 -3.14286,-6.66825c0.34886,-0.37009 0.69876,-0.74129 1.04762,-1.11138c-2.93962,-3.58752 -6.08249,-6.92164 -9.42859,-10.00238c1.29591,-0.25784 2.34353,-0.81353 3.14286,-1.66706z" fill="#b6bbc0"/>
   </g>
   <g stroke="null" id="svg_33">
    <path stroke="null" id="svg_34" opacity="0.004" d="m155.9952,32.97252c1.39648,0.74129 1.39648,0.74129 0,0z" fill="#000000"/>
   </g>
   <g stroke="null" id="svg_35">
    <path stroke="null" id="svg_36" opacity="0.106" d="m275.42396,27.41564c-6.48477,-0.35897 -12.7705,0.01111 -18.85717,1.11138c-0.69876,26.673 -1.39648,53.34601 -2.09524,80.01901c-1.04762,-2.22275 -2.09524,-4.4455 -3.14286,-6.66825c-0.87791,-0.38009 -1.22781,-1.12027 -1.04762,-2.22275c1.17857,-0.94245 1.17857,-2.05382 0,-3.33413c0.22105,-20.49487 0.396,-41.611 0.52381,-63.34839c1.35353,-1.9438 2.57505,-3.98095 3.66667,-6.11256c5.29363,-0.24117 10.53173,-0.79686 15.71431,-1.66706c1.92343,0.58681 3.66982,1.32698 5.2381,2.22275z" fill="#0c0d0d"/>
   </g>
   <g stroke="null" id="svg_37">
    <path stroke="null" id="svg_38" opacity="0.239" d="m212.56672,31.86115c1.47295,0.52568 2.17172,1.63706 2.09524,3.33413c-1.47295,-0.52568 -2.17172,-1.63706 -2.09524,-3.33413z" fill="#38393b"/>
   </g>
   <g stroke="null" id="svg_39">
    <path stroke="null" id="svg_40" opacity="0.996" d="m207.32861,90.76403c0,7.40954 0,14.81797 0,22.2275c-0.69876,0 -1.04762,-0.37009 -1.04762,-1.11138c0.47876,-4.53886 -0.22,-8.79876 -2.09524,-12.78081c0.54686,-0.62348 0.89572,-1.36477 1.04762,-2.22275c-1.69295,-2.60617 -3.08943,-5.38461 -4.19048,-8.33531c0.77733,-3.93538 -0.61914,-7.08391 -4.19048,-9.44669c1.39648,-2.22275 1.39648,-4.4455 0,-6.66825c-1.22781,-0.46567 -2.27543,-1.20584 -3.14286,-2.22275c1.19534,-0.82353 1.19534,-1.75042 0,-2.77844c-1.24562,-1.03247 -2.6421,-1.40256 -4.19048,-1.11138c0.32791,3.93649 -0.022,7.6407 -1.04762,11.11375c0,-9.26109 0,-18.52329 0,-27.78438c0.52172,-4.21211 1.74429,-8.28641 3.66667,-12.22513c2.36448,1.71819 4.63467,3.56974 6.80953,5.55688c-1.39648,1.11138 -1.39648,2.22275 0,3.33413c-0.49972,1.08692 -1.19743,2.0127 -2.09524,2.77844c1.87629,0.46122 3.27277,1.5726 4.19048,3.33413c-3.60696,0.24561 -3.95582,1.35699 -1.04762,3.33413c0,1.85266 0,3.70421 0,5.55688c2.12353,1.55148 2.47238,3.40303 1.04762,5.55688c1.25819,1.00357 2.13191,2.29944 2.61905,3.88981c0.65686,6.95054 1.87943,13.61879 3.66667,20.00475z" fill="#aab0b5"/>
   </g>
   <g stroke="null" id="svg_41">
    <path stroke="null" id="svg_42" opacity="0.004" d="m318.3764,37.41802c1.39648,0.74129 1.39648,0.74129 0,0z" fill="#000000"/>
   </g>
   <g stroke="null" id="svg_43">
    <path stroke="null" id="svg_44" opacity="0.996" d="m25.04262,7.41089c0,0.74129 0,1.48146 0,2.22275c-0.17495,19.26791 0,38.53138 0.52381,57.79151c0.53324,-18.32324 0.8821,-36.47533 1.04762,-54.45738c0.61076,1.66929 1.48343,3.15075 2.61905,4.4455c0.43057,-0.84687 0.60448,-1.95824 0.52381,-3.33413c2.70077,2.42502 4.6221,4.83337 5.76191,7.22394c-1.88676,0.35231 -2.23562,1.09359 -1.04762,2.22275c-2.72591,1.03914 -4.29734,3.07629 -4.71429,6.11256c-3.1261,-2.45281 -3.30001,-1.89712 -0.52381,1.66706c-0.89781,0.76574 -1.59553,1.69151 -2.09524,2.77844c0.36248,1.3292 0.88629,1.3292 1.57143,0c0.52381,0.55569 1.04762,1.11138 1.57143,1.66706c-0.88524,1.73152 -0.18752,2.8429 2.09524,3.33413c-2.2901,0.67127 -2.464,1.96713 -0.52381,3.88981c3.30943,1.19362 5.75458,3.41637 7.33334,6.66825c1.43315,1.65928 1.6081,3.32635 0.52381,5.00119c2.794,0.74129 2.794,1.48146 0,2.22275c2.50486,0.76796 2.50486,1.87934 0,3.33413c2.2021,1.92268 2.02715,3.95983 -0.52381,6.11256c-0.44314,-1.61816 -1.31581,-2.17385 -2.61905,-1.66706c0.83076,1.20584 1.52953,2.50282 2.09524,3.88981c-1.25191,1.63039 -1.25191,3.29745 0,5.00119c-0.42219,1.63706 -1.12095,3.11852 -2.09524,4.4455c0.84648,0.3423 1.54524,0.89799 2.09524,1.66706c-3.65305,1.57482 -7.14582,4.35326 -10.47621,8.33531c0.69876,0.37009 1.39648,0.74129 2.09524,1.11138c-1.21314,1.12138 -1.91191,2.60284 -2.09524,4.4455c0.14876,5.25125 0.49867,10.43804 1.04762,15.55925c-0.57305,1.02802 -1.27076,1.9538 -2.09524,2.77844c-0.87267,-14.43343 -1.39648,-28.88131 -1.57143,-43.34363c-0.52381,15.18472 -0.69876,30.37277 -0.52381,45.56638c-0.87791,-0.38009 -1.22781,-1.12027 -1.04762,-2.22275c0,-34.45263 0,-68.90526 0,-103.35789c0,-0.74129 0.34886,-1.11138 1.04762,-1.11138z" fill="#5b6269"/>
   </g>
   <g stroke="null" id="svg_45">
    <path stroke="null" id="svg_46" opacity="0.996" d="m137.13803,8.52227c1.16181,0.87799 2.55829,1.43367 4.19048,1.66706c-1.99257,0.22116 -3.56401,1.14805 -4.71429,2.77844c-0.7281,2.46948 -1.60076,4.87783 -2.61905,7.22394c1.64267,5.97142 4.08782,11.89949 7.33334,17.782c-1.04762,0.37009 -2.09524,0.74129 -3.14286,1.11138c0.78886,1.65261 1.66153,1.83821 2.61905,0.55569c0.11524,2.60951 1.33781,4.27657 3.66667,5.00119c-1.95591,0.79019 -3.52734,0.2345 -4.71429,-1.66706c-0.80876,1.49925 -2.03134,2.42502 -3.66667,2.77844c3.6782,-0.3123 7.16992,0.79908 10.47621,3.33413c5.71477,6.32484 7.81001,13.91997 6.28572,22.78319c-1.9821,-1.33587 -3.90343,-2.81734 -5.76191,-4.4455c-0.32267,0.89799 -0.84648,1.63928 -1.57143,2.22275c-1.27705,-0.84798 -2.32467,-1.95935 -3.14286,-3.33413c-1.36086,0.65571 -2.23353,1.76709 -2.61905,3.33413c-0.43371,-0.5079 -0.95753,-0.8791 -1.57143,-1.11138c-1.64581,2.12828 -3.74105,3.23966 -6.28572,3.33413c0.3321,4.67 -0.01781,9.1155 -1.04762,13.3365c0.17495,-14.08224 0,-28.16002 -0.52381,-42.23226c-4.57705,-5.04231 -9.29135,-9.8579 -14.14288,-14.44788c1.21524,-0.8502 2.26286,-1.96158 3.14286,-3.33413c-1.02981,-2.5206 -1.37867,-5.29904 -1.04762,-8.33531c0.84648,-0.3423 1.54524,-0.89799 2.09524,-1.66706c-0.67572,-1.36921 -0.84962,-2.85068 -0.52381,-4.4455c-0.78572,-0.69572 -1.65943,-1.25141 -2.61905,-1.66706c6.6262,-0.55569 13.26078,-0.74018 19.90479,-0.55569z" fill="#bfc5c9"/>
   </g>
   <g stroke="null" id="svg_47">
    <path stroke="null" id="svg_48" opacity="0.227" d="m215.70958,37.41802c1.47295,0.52568 2.17172,1.63706 2.09524,3.33413c-1.47295,-0.52568 -2.17172,-1.63706 -2.09524,-3.33413z" fill="#363738"/>
   </g>
   <g stroke="null" id="svg_49">
    <path stroke="null" id="svg_50" opacity="0.996" d="m275.42396,27.41564c0,16.67063 0,33.34126 0,50.01188c-5.53039,-6.05811 -10.9424,-12.35627 -16.23812,-18.89338c-0.95543,6.81718 -1.8281,13.48543 -2.61905,20.00475c0,-16.67063 0,-33.34126 0,-50.01188c6.08668,-1.10026 12.3724,-1.47035 18.85717,-1.11138z" fill="#bdc3c7"/>
   </g>
   <g stroke="null" id="svg_51">
    <path stroke="null" id="svg_52" opacity="0.004" d="m155.9952,42.9749c1.39648,0.74129 1.39648,0.74129 0,0z" fill="#000000"/>
   </g>
   <g stroke="null" id="svg_53">
    <path stroke="null" id="svg_54" opacity="0.004" d="m318.3764,42.9749c1.39648,0.74129 1.39648,0.74129 0,0z" fill="#000000"/>
   </g>
   <g stroke="null" id="svg_55">
    <path stroke="null" id="svg_56" opacity="0.004" d="m155.9952,47.4204c1.39648,0.74129 1.39648,0.74129 0,0z" fill="#000000"/>
   </g>
   <g stroke="null" id="svg_57">
    <path stroke="null" id="svg_58" opacity="0.29" d="m219.90006,45.19765c1.47295,0.52568 2.17172,1.63706 2.09524,3.33413c-1.47295,-0.52568 -2.17172,-1.63706 -2.09524,-3.33413z" fill="#414343"/>
   </g>
   <g stroke="null" id="svg_59">
    <path stroke="null" id="svg_60" opacity="0.004" d="m318.3764,47.4204c1.39648,0.74129 1.39648,0.74129 0,0z" fill="#000000"/>
   </g>
   <g stroke="null" id="svg_61">
    <path stroke="null" id="svg_62" opacity="0.004" d="m85.80462,49.64315c1.39648,0.74129 1.39648,0.74129 0,0z" fill="#000000"/>
   </g>
   <g stroke="null" id="svg_63">
    <path stroke="null" id="svg_64" opacity="0.235" d="m223.04292,50.75452c1.47295,0.52568 2.17172,1.63706 2.09524,3.33413c-1.47295,-0.52568 -2.17172,-1.63706 -2.09524,-3.33413z" fill="#363939"/>
   </g>
   <g stroke="null" id="svg_65">
    <path stroke="null" id="svg_66" opacity="0.996" d="m316.28116,27.41564c0,21.48622 0,42.97354 0,64.45976c-0.86848,-9.06549 -1.39229,-18.32658 -1.57143,-27.78438c-1.04762,-1.48146 -2.09524,-2.96404 -3.14286,-4.4455c-2.4441,1.85266 -4.88925,3.70421 -7.33334,5.55688c-3.44143,-2.99293 -4.83791,-2.25165 -4.19048,2.22275c-0.70295,-0.83575 -1.57562,-1.20695 -2.61905,-1.11138c0,-12.96641 0,-25.93172 0,-38.89813c6.28572,0 12.57145,0 18.85717,0z" fill="#c4c9cd"/>
   </g>
   <g stroke="null" id="svg_67">
    <path stroke="null" id="svg_68" opacity="0.027" d="m45.99503,55.20002c28.71633,29.90822 57.35199,60.10095 85.90489,90.57708c1.95381,1.4459 4.04905,1.8171 6.28572,1.11138c3.17639,-3.26855 6.49315,-6.41708 9.9524,-9.44669c1.74848,-1.85489 2.62115,-4.07764 2.61905,-6.66825c0,-0.37009 0,-0.74129 0,-1.11138c1.04762,-0.37009 1.74638,-1.11138 2.09524,-2.22275c0.34886,0 0.69876,0 1.04762,0c0.34886,0 0.69876,0 1.04762,0c0.85276,-2.36834 1.37657,-4.96118 1.57143,-7.77963c0.80353,4.54997 0.45467,8.99547 -1.04762,13.3365c-3.96315,6.42819 -8.67744,12.16956 -14.14288,17.22632c-1.77676,1.33921 -3.52315,1.89489 -5.2381,1.66706c-2.47134,-0.75129 -4.91544,-1.67707 -7.33334,-2.77844c-11.58773,-13.03421 -23.11156,-25.25934 -34.57148,-36.67538c-11.11316,-13.6199 -22.81194,-26.03063 -35.09529,-37.23107c-2.78248,-3.66087 -5.57544,-7.36508 -8.38097,-11.11375c-1.04762,0.74129 -2.09524,1.48146 -3.14286,2.22275c-0.22,-1.73152 -0.74381,-3.21299 -1.57143,-4.4455c0,-2.22275 0,-4.4455 0,-6.66825z" fill="#000000"/>
   </g>
   <g stroke="null" id="svg_71">
    <path stroke="null" id="svg_72" opacity="0.004" d="m318.3764,65.2024c1.39648,0.74129 1.39648,0.74129 0,0z" fill="#000000"/>
   </g>
   <g stroke="null" id="svg_73">
    <path stroke="null" id="svg_74" opacity="0.11" d="m101.51893,14.07914c4.88925,4.81559 9.77744,9.63229 14.66669,14.44788c4.85153,4.58998 9.56582,9.40557 14.14288,14.44788c0.52381,14.07223 0.69876,28.15002 0.52381,42.23226c0.17391,4.83004 -0.00105,9.64563 -0.52381,14.44788c-1.44153,-1.33921 -2.66305,-2.82067 -3.66667,-4.4455c0.76686,-8.62094 0.76686,-17.69643 0,-27.22869c1.57876,-1.63706 2.27753,-3.67532 2.09524,-6.11256c-1.31267,-4.26768 -1.31267,-8.52758 0,-12.78081c-0.11733,-4.32547 -1.86267,-7.6596 -5.2381,-10.00238c-0.99314,-0.53679 -2.04077,-0.72128 -3.14286,-0.55569c0,-1.11138 0,-2.22275 0,-3.33413c-1.1021,0.16559 -2.14972,-0.01889 -3.14286,-0.55569c-6.68592,-5.77693 -11.92402,-12.63078 -15.71431,-20.56044z" fill="#1a1b1b"/>
   </g>
   <g stroke="null" id="svg_75">
    <path stroke="null" id="svg_76" opacity="0.239" d="m230.37627,64.09103c1.47295,0.52568 2.17172,1.63706 2.09524,3.33413c-1.47295,-0.52568 -2.17172,-1.63706 -2.09524,-3.33413z" fill="#363939"/>
   </g>
   <g stroke="null" id="svg_77">
    <path stroke="null" id="svg_78" opacity="0.494" d="m44.94741,47.4204c1.03924,-0.19116 1.73696,0.18004 2.09524,1.11138c-1.00676,1.96158 -1.35667,4.18433 -1.04762,6.66825c0,2.22275 0,4.4455 0,6.66825c-0.34467,14.64459 0.00524,29.09247 1.04762,43.34363c1.15238,1.22807 1.85115,2.70953 2.09524,4.4455c-1.35562,-0.87799 -2.57819,-1.98936 -3.66667,-3.33413c-0.52381,-19.63133 -0.69876,-39.26489 -0.52381,-58.90289z" fill="#4b4f52"/>
   </g>
   <g stroke="null" id="svg_79">
    <path stroke="null" id="svg_80" opacity="0.004" d="m47.04265,67.42515c1.15029,1.22362 1.32524,2.70509 0.52381,4.4455c-0.51333,-1.43701 -0.68829,-2.91958 -0.52381,-4.4455z" fill="#000000"/>
   </g>
   <g stroke="null" id="svg_81">
    <path stroke="null" id="svg_82" opacity="0.004" d="m102.56655,67.42515c1.39648,0.74129 1.39648,0.74129 0,0z" fill="#000000"/>
   </g>
   <g stroke="null" id="svg_83">
    <path stroke="null" id="svg_84" opacity="0.005" d="m154.94758,67.42515c1.59867,1.10248 2.29743,2.76955 2.09524,5.00119c-0.17495,1.29697 -0.34886,2.59284 -0.52381,3.88981c-0.40124,-0.61792 -0.92505,-0.98801 -1.57143,-1.11138c0,-0.74129 0,-1.48146 0,-2.22275c1.39648,-0.74129 1.39648,-1.48146 0,-2.22275c0,-1.11138 0,-2.22275 0,-3.33413z" fill="#000000"/>
   </g>
   <g stroke="null" id="svg_85">
    <path stroke="null" id="svg_86" opacity="0.996" d="m275.42396,77.42753c0,7.03834 0,14.07779 0,21.11613c-1.36295,-2.32389 -2.93439,-4.54664 -4.71429,-6.66825c-1.42895,0.84242 -2.65153,0.28673 -3.66667,-1.66706c0.47876,-0.46011 0.82867,-1.0158 1.04762,-1.66706c-2.5761,-1.43479 -4.14753,-3.65754 -4.71429,-6.66825c-0.34886,0.37009 -0.69876,0.74129 -1.04762,1.11138c-0.87267,-1.11138 -1.74638,-2.22275 -2.61905,-3.33413c-0.61391,0.23228 -1.13772,0.60348 -1.57143,1.11138c-0.52381,8.14193 -0.69772,16.29165 -0.52381,24.45025c0.28076,1.77709 -0.06914,3.25855 -1.04762,4.4455c0,-10.37246 0,-20.74604 0,-31.11851c0.79095,-6.51933 1.66362,-13.18758 2.61905,-20.00475c5.29572,6.53711 10.70773,12.83527 16.23812,18.89338z" fill="#abb1b6"/>
   </g>
   <g stroke="null" id="svg_87">
    <path stroke="null" id="svg_88" opacity="0.148" d="m296.37637,29.6384c-0.34781,37.6056 0.0021,75.02227 1.04762,112.2489c20.42127,1.10804 41.02483,1.47813 61.80962,1.11138c0.14667,1.80487 -0.5521,3.10074 -2.09524,3.88981c-20.25365,0.74129 -40.50835,0.74129 -60.762,0c-0.52381,-0.55569 -1.04762,-1.11138 -1.57143,-1.66706c-0.84648,-33.6091 -1.37029,-66.76587 -1.57143,-99.46808c0.17495,-4.2599 0.34886,-8.52091 0.52381,-12.78081c0.24724,-1.79932 1.11991,-2.91069 2.61905,-3.33413z" fill="#0b0b0b"/>
   </g>
   <g stroke="null" id="svg_89">
    <path stroke="null" id="svg_90" opacity="0.314" d="m234.56675,71.87065c1.47295,0.52568 2.17172,1.63706 2.09524,3.33413c-1.47295,-0.52568 -2.17172,-1.63706 -2.09524,-3.33413z" fill="#444646"/>
   </g>
   <g stroke="null" id="svg_91">
    <path stroke="null" id="svg_92" opacity="0.027" d="m253.42392,142.48356c7.52925,0.3612 14.86259,-0.01 22.00003,-1.11138c0.34886,0 0.69876,0 1.04762,0c0.34886,0 0.69876,0 1.04762,0c-0.62962,5.66912 -3.59753,9.00325 -8.90478,10.00238c-3.47181,-1.36699 -6.96353,-0.9969 -10.47621,1.11138c-2.41058,-0.22116 -4.67972,-0.77685 -6.80953,-1.66706c-3.17639,-2.99849 -5.97039,-6.33262 -8.38097,-10.00238c-10.80202,-18.8856 -20.92937,-37.77898 -30.381,-56.68014c-0.95333,-1.9438 -2.34981,-3.24077 -4.19048,-3.88981c0,-2.96404 0,-5.92696 0,-8.891c1.04762,0 2.09524,0 3.14286,0c-0.00943,2.00937 0.51438,3.86203 1.57143,5.55688c4.97515,7.12614 9.51449,14.53456 13.61907,22.2275c1.73381,2.49726 2.08267,5.0901 1.04762,7.77963c4.71744,7.04056 8.90792,14.4501 12.57145,22.2275c4.61267,4.29102 8.97706,8.73652 13.09526,13.3365z" fill="#030303"/>
   </g>
   <g stroke="null" id="svg_93">
    <path stroke="null" id="svg_94" opacity="0.004" d="m110.94751,76.31615c1.39648,0.74129 1.39648,0.74129 0,0z" fill="#000000"/>
   </g>
   <g stroke="null" id="svg_95">
    <path stroke="null" id="svg_96" opacity="0.004" d="m155.9952,78.5389c1.07381,0.44122 1.24876,1.18139 0.52381,2.22275c-0.4861,-0.66016 -0.66105,-1.40144 -0.52381,-2.22275z" fill="#000000"/>
   </g>
   <g stroke="null" id="svg_97">
    <path stroke="null" id="svg_98" opacity="0.018" d="m239.80485,80.76165c2.30267,-0.10114 2.65153,0.63904 1.04762,2.22275c-0.87791,-0.38009 -1.22781,-1.12027 -1.04762,-2.22275z" fill="#171818"/>
   </g>
   <g stroke="null" id="svg_99">
    <path stroke="null" id="svg_100" opacity="0.997" d="m152.85234,71.87065c0,4.81559 0,9.63229 0,14.44788c-0.58981,-2.0227 -1.81134,-3.50417 -3.66667,-4.4455c-1.81238,1.27697 -3.55772,1.27697 -5.2381,0c-0.37086,2.56394 -1.41848,2.93514 -3.14286,1.11138c-0.69876,0.74129 -1.39648,1.48146 -2.09524,2.22275c-2.05019,-1.53814 -3.09781,-0.79686 -3.14286,2.22275c-1.04762,0.74129 -2.09524,1.48146 -3.14286,2.22275c-0.18333,4.12431 -0.70714,8.19973 -1.57143,12.22513c-3.09048,-1.79487 -5.88344,-4.01762 -8.38097,-6.66825c0.47876,-0.88688 1.17753,-1.25697 2.09524,-1.11138c0.69876,0.37009 1.39648,0.74129 2.09524,1.11138c1.00362,1.62483 2.22515,3.10629 3.66667,4.4455c0.52276,-4.80225 0.69772,-9.61784 0.52381,-14.44788c1.02981,-4.221 1.37972,-8.6665 1.04762,-13.3365c2.54467,-0.09447 4.63991,-1.20584 6.28572,-3.33413c0.61391,0.23228 1.13772,0.60348 1.57143,1.11138c0.38552,-1.56704 1.25819,-2.67841 2.61905,-3.33413c0.81819,1.37477 1.86581,2.48615 3.14286,3.33413c0.72495,-0.58347 1.24876,-1.32476 1.57143,-2.22275c1.85848,1.62816 3.77982,3.10963 5.76191,4.4455z" fill="#a9aeb4"/>
   </g>
   <g stroke="null" id="svg_101">
    <path stroke="null" id="svg_102" opacity="0.004" d="m155.9952,81.87303c1.39648,0.74129 1.39648,0.74129 0,0z" fill="#000000"/>
   </g>
   <g stroke="null" id="svg_103">
    <path stroke="null" id="svg_104" opacity="0.004" d="m155.9952,84.09578c1.39648,0.74129 1.39648,0.74129 0,0z" fill="#000000"/>
   </g>
   <g stroke="null" id="svg_105">
    <path stroke="null" id="svg_106" opacity="0.004" d="m47.04265,85.20716c1.07381,0.44122 1.24876,1.18139 0.52381,2.22275c-0.4861,-0.66016 -0.66105,-1.40144 -0.52381,-2.22275z" fill="#000000"/>
   </g>
   <g stroke="null" id="svg_107">
    <path stroke="null" id="svg_108" opacity="0.996" d="m73.23317,38.5294c4.19048,4.07541 8.38097,8.14971 12.57145,12.22513c5.2381,6.29816 10.82506,12.22513 16.76193,17.782c2.4441,3.33413 5.2381,6.29816 8.38097,8.891c3.49172,4.07541 6.98449,8.14971 10.47621,12.22513c0.23571,2.46281 -0.63695,4.31547 -2.61905,5.55688c-0.69876,-0.74129 -1.39648,-1.48146 -2.09524,-2.22275c-0.80876,1.49925 -2.03134,2.42502 -3.66667,2.77844c0.88,1.85155 0.35619,2.03715 -1.57143,0.55569c-0.69876,0.74129 -1.39648,1.48146 -2.09524,2.22275c-2.13191,-3.08629 -4.75096,-4.38326 -7.85716,-3.88981c0.34886,-0.37009 0.69876,-0.74129 1.04762,-1.11138c-0.95962,-0.41565 -1.83334,-0.97134 -2.61905,-1.66706c-1.04762,1.11138 -2.09524,2.22275 -3.14286,3.33413c-1.09581,-1.76709 -2.31838,-3.43415 -3.66667,-5.00119c-1.32,-2.57506 -3.41524,-5.16901 -6.28572,-7.77963c0.58772,-1.74041 -0.11105,-3.22188 -2.09524,-4.4455c0.34886,-0.37009 0.69876,-0.74129 1.04762,-1.11138c-2.09524,-2.59284 -4.19048,-5.18679 -6.28572,-7.77963c1.61857,-3.20632 1.26867,-6.54044 -1.04762,-10.00238c0.69876,-0.74129 1.39648,-1.48146 2.09524,-2.22275c-0.132,-2.19385 -0.30591,-4.6022 -0.52381,-7.22394c-2.44619,-3.5175 -5.06525,-6.85163 -7.85716,-10.00238c0,-0.74129 0.34886,-1.11138 1.04762,-1.11138z" fill="#9ea4a9"/>
   </g>
   <g stroke="null" id="svg_109">
    <path stroke="null" id="svg_110" opacity="0.996" d="m316.28116,91.87541c-0.34257,10.94482 0.00629,21.68738 1.04762,32.22988c0.34886,0 0.69876,0 1.04762,0c0.34886,0 0.69876,0 1.04762,0c13.61907,0 27.23814,0 40.85721,0c0,0.74129 0,1.48146 0,2.22275c-14.67088,0.1856 -29.33757,0 -44.00007,-0.55569c-1.02248,-6.75272 -1.37238,-13.60546 -1.04762,-20.56044c0.44733,-3.6542 -0.25143,-6.98833 -2.09524,-10.00238c1.41953,-1.30587 1.24457,-2.41724 -0.52381,-3.33413c-1.06438,1.2603 -1.76315,0.89021 -2.09524,-1.11138c-0.34886,0.37009 -0.69876,0.74129 -1.04762,1.11138c-3.32934,-2.13717 -6.82211,-3.98873 -10.47621,-5.55688c-0.19486,2.81845 -0.71867,5.41129 -1.57143,7.77963c0,-9.26109 0,-18.52329 0,-27.78438c1.04343,-0.09558 1.9161,0.27562 2.61905,1.11138c-0.64743,-4.4744 0.74905,-5.21568 4.19048,-2.22275c2.4441,-1.85266 4.88925,-3.70421 7.33334,-5.55688c1.04762,1.48146 2.09524,2.96404 3.14286,4.4455c0.17914,9.4578 0.70295,18.71889 1.57143,27.78438z" fill="#acb2b7"/>
   </g>
   <g stroke="null" id="svg_111">
    <path stroke="null" id="svg_112" opacity="0.997" d="m206.28099,111.88016c-1.12934,-2.26609 -2.17696,-4.67444 -3.14286,-7.22394c-0.91876,-2.97293 -2.66515,-5.93697 -5.2381,-8.891c1.1021,-1.90712 0.40438,-3.0185 -2.09524,-3.33413c0,-2.22275 0,-4.4455 0,-6.66825c-1.34829,-1.56704 -2.57086,-3.2341 -3.66667,-5.00119c-1.958,4.31214 -3.18058,8.75764 -3.66667,13.3365c0,-5.55688 0,-11.11375 0,-16.67063c1.02562,-3.47305 1.37553,-7.17726 1.04762,-11.11375c1.54838,-0.29118 2.94486,0.07891 4.19048,1.11138c1.19534,1.02802 1.19534,1.95491 0,2.77844c0.86743,1.01691 1.91505,1.75708 3.14286,2.22275c1.39648,2.22275 1.39648,4.4455 0,6.66825c3.57134,2.36278 4.96782,5.51131 4.19048,9.44669c1.10105,2.9507 2.49753,5.72914 4.19048,8.33531c-0.1519,0.85798 -0.50076,1.59927 -1.04762,2.22275c1.87524,3.98206 2.574,8.24196 2.09524,12.78081z" fill="#9ba1a8"/>
   </g>
   <g stroke="null" id="svg_113">
    <path stroke="null" id="svg_114" opacity="0.996" d="m315.23354,105.21191c-1.8941,0.90799 -3.46553,0.16671 -4.71429,-2.22275c-0.34886,0.74129 -0.69876,1.48146 -1.04762,2.22275c-1.39648,0 -2.794,0 -4.19048,0c-2.794,-1.48146 -4.88925,-3.70421 -6.28572,-6.66825c-0.52381,7.02945 -0.69772,14.06779 -0.52381,21.11613c0,0.74129 -0.34886,1.11138 -1.04762,1.11138c0,-8.891 0,-17.782 0,-26.673c0.85276,-2.36834 1.37657,-4.96118 1.57143,-7.77963c3.6541,1.56815 7.14687,3.4197 10.47621,5.55688c0.34886,-0.37009 0.69876,-0.74129 1.04762,-1.11138c0.3321,2.00159 1.03086,2.37167 2.09524,1.11138c1.76838,0.91688 1.94334,2.02826 0.52381,3.33413c1.84381,3.01405 2.54258,6.34818 2.09524,10.00238z" fill="#a3a9af"/>
   </g>
   <g stroke="null" id="svg_115">
    <path stroke="null" id="svg_116" opacity="0.004" d="m47.04265,89.65266c1.07381,0.44122 1.24876,1.18139 0.52381,2.22275c-0.4861,-0.66016 -0.66105,-1.40144 -0.52381,-2.22275z" fill="#000000"/>
   </g>
   <g stroke="null" id="svg_117">
    <path stroke="null" id="svg_118" opacity="0.004" d="m155.9952,90.76403c1.1241,0.83464 1.29905,1.94602 0.52381,3.33413c-0.506,-1.05358 -0.67991,-2.16496 -0.52381,-3.33413z" fill="#000000"/>
   </g>
   <g stroke="null" id="svg_119">
    <path stroke="null" id="svg_120" opacity="0.993" d="m235.61437,77.42753c0.87791,-0.38009 1.22781,-1.12027 1.04762,-2.22275c1.45619,1.55481 2.50381,3.40748 3.14286,5.55688c-0.18019,1.10248 0.16971,1.84266 1.04762,2.22275c2.61905,3.32746 4.71429,7.03167 6.28572,11.11375c-0.18019,1.10248 0.16971,1.84266 1.04762,2.22275c0.34886,0 0.69876,0 1.04762,0c0.05971,1.23252 0.40857,2.34389 1.04762,3.33413c-0.18019,1.10248 0.16971,1.84266 1.04762,2.22275c1.04762,2.22275 2.09524,4.4455 3.14286,6.66825c0,0.37009 0,0.74129 0,1.11138c-2.66305,-4.30991 -6.15477,-7.82964 -10.47621,-10.55806c-2.60334,0.69239 -4.69858,-0.41899 -6.28572,-3.33413c-0.99419,-0.68572 -1.86686,-0.50123 -2.61905,0.55569c-0.89362,-1.80598 -1.94124,-2.17607 -3.14286,-1.11138c-2.07115,-2.98738 -3.99143,-3.35746 -5.76191,-1.11138c-5.07991,-7.81408 -9.61925,-15.9649 -13.61907,-24.45025c0.62333,-2.90402 1.49705,-2.90402 2.61905,0c1.96219,-0.6546 3.70858,0.08669 5.2381,2.22275c0.43371,-0.5079 0.95753,-0.8791 1.57143,-1.11138c4.38429,2.2961 8.57478,4.88894 12.57145,7.77963c0.63591,-0.13781 0.98476,-0.5079 1.04762,-1.11138z" fill="#a1a6ab"/>
   </g>
   <g stroke="null" id="svg_121">
    <path stroke="null" id="svg_122" opacity="0.24" d="m47.04265,48.53177c4.53934,5.55688 9.42859,10.74366 14.66669,15.55925c5.2381,6.29816 10.82506,12.22513 16.76193,17.782c9.77744,11.11375 19.90479,21.85742 30.381,32.22988c4.19048,5.18679 8.72982,10.00238 13.61907,14.44788c4.51734,5.53354 9.40659,10.72033 14.66669,15.55925c4.56134,-4.46995 9.10068,-8.91545 13.61907,-13.3365c0.0021,2.59062 -0.87057,4.81337 -2.61905,6.66825c-3.45924,3.02961 -6.77601,6.17813 -9.9524,9.44669c-2.23667,0.70572 -4.33191,0.33452 -6.28572,-1.11138c-28.5529,-30.47613 -57.18856,-60.66886 -85.90489,-90.57708c-0.30905,-2.48392 0.04086,-4.70667 1.04762,-6.66825z" fill="#0c0d0d"/>
   </g>
   <g stroke="null" id="svg_127">
    <path stroke="null" id="svg_128" opacity="0.01" d="m247.1382,94.09816c1.75896,-0.23895 2.80658,0.50234 3.14286,2.22275c-0.34886,0 -0.69876,0 -1.04762,0c-0.34886,-1.48146 -0.69876,-1.48146 -1.04762,0c-0.87791,-0.38009 -1.22781,-1.12027 -1.04762,-2.22275z" fill="#121212"/>
   </g>
   <g stroke="null" id="svg_129">
    <path stroke="null" id="svg_130" opacity="0.995" d="m72.18555,39.64077c2.79191,3.15075 5.41096,6.48487 7.85716,10.00238c0.21791,2.62173 0.39181,5.03008 0.52381,7.22394c-0.69876,0.74129 -1.39648,1.48146 -2.09524,2.22275c2.31629,3.46193 2.66619,6.79606 1.04762,10.00238c2.09524,2.59284 4.19048,5.18679 6.28572,7.77963c-0.34886,0.37009 -0.69876,0.74129 -1.04762,1.11138c1.98419,1.22362 2.68296,2.70509 2.09524,4.4455c2.87048,2.61062 4.96572,5.20457 6.28572,7.77963c1.34829,1.56704 2.57086,3.2341 3.66667,5.00119c1.04762,-1.11138 2.09524,-2.22275 3.14286,-3.33413c0.78572,0.69572 1.65943,1.25141 2.61905,1.66706c-0.34886,0.37009 -0.69876,0.74129 -1.04762,1.11138c3.1062,-0.49345 5.72525,0.80352 7.85716,3.88981c0.69876,-0.74129 1.39648,-1.48146 2.09524,-2.22275c1.92762,1.48146 2.45143,1.29586 1.57143,-0.55569c1.63534,-0.35342 2.85791,-1.27919 3.66667,-2.77844c0.69876,0.74129 1.39648,1.48146 2.09524,2.22275c1.9821,-1.24141 2.85477,-3.09407 2.61905,-5.55688c1.04762,0.74129 2.09524,1.48146 3.14286,2.22275c0,0.37009 0,0.74129 0,1.11138c0,0.37009 0,0.74129 0,1.11138c-0.91772,-0.14559 -1.61648,0.2245 -2.09524,1.11138c2.49753,2.65063 5.29048,4.87338 8.38097,6.66825c0.86429,-4.0254 1.3881,-8.10081 1.57143,-12.22513c1.04762,-0.74129 2.09524,-1.48146 3.14286,-2.22275c0.04505,-3.01961 1.09267,-3.76089 3.14286,-2.22275c0.69876,-0.74129 1.39648,-1.48146 2.09524,-2.22275c1.72438,1.82377 2.772,1.45257 3.14286,-1.11138c1.68038,1.27697 3.42572,1.27697 5.2381,0c1.85534,0.94133 3.07686,2.4228 3.66667,4.4455c-0.33629,5.77359 0.01362,11.33047 1.04762,16.67063c0,8.14971 0,16.30054 0,24.45025c-0.34886,0 -0.69876,0 -1.04762,0c0,-4.81559 0,-9.63229 0,-14.44788c1.1021,-5.59911 -0.46933,-10.04461 -4.71429,-13.3365c-3.91391,1.58038 -7.05677,0.469 -9.42859,-3.33413c-4.30467,-0.03223 -6.22601,2.19052 -5.76191,6.66825c-4.03124,-0.45455 -8.04677,-0.45455 -12.04764,0c-0.43895,1.30253 -1.13667,2.41391 -2.09524,3.33413c-4.63363,-1.60927 -9.17297,-2.35056 -13.61907,-2.22275c-1.99781,2.46614 -1.474,4.3188 1.57143,5.55688c0.82762,1.43812 1.87524,2.73509 3.14286,3.88981c-0.23886,0.44344 -0.58876,0.62793 -1.04762,0.55569c-10.47621,-10.37246 -20.60356,-21.11613 -30.381,-32.22988c0.88,-2.34945 0.18124,-4.3866 -2.09524,-6.11256c0.81295,-1.96713 0.63905,-4.00428 -0.52381,-6.11256c-2.6641,-1.52925 -2.838,-2.82623 -0.52381,-3.88981c-1.44572,-1.47146 -1.79562,-2.95292 -1.04762,-4.4455c-2.56458,-3.78312 -2.56458,-8.04413 0,-12.78081c-1.25086,-2.6573 -2.29848,-5.25014 -3.14286,-7.77963c0.1299,-0.6746 0.47876,-1.04469 1.04762,-1.11138z" fill="#8e959b"/>
   </g>
   <g stroke="null" id="svg_131">
    <path stroke="null" id="svg_132" opacity="0.997" d="m206.28099,111.88016c0,0.74129 0.34886,1.11138 1.04762,1.11138c0,9.26109 0,18.52329 0,27.78438c0,0.37009 0,0.74129 0,1.11138c-0.34886,0 -0.69876,0 -1.04762,0c1.07172,-16.90068 -4.16639,-29.4959 -15.71431,-37.78676c-0.69981,2.74399 -1.39857,5.33682 -2.09524,7.77963c0,-5.92696 0,-11.85504 0,-17.782c0.4861,-4.57887 1.70867,-9.02437 3.66667,-13.3365c1.09581,1.76709 2.31838,3.43415 3.66667,5.00119c0,2.22275 0,4.4455 0,6.66825c2.49962,0.31563 3.19734,1.42701 2.09524,3.33413c2.57296,2.95404 4.31934,5.91807 5.2381,8.891c0.96591,2.54949 2.01353,4.95784 3.14286,7.22394z" fill="#899096"/>
   </g>
   <g stroke="null" id="svg_133">
    <path stroke="null" id="svg_134" opacity="0.996" d="m152.85234,112.99154c-1.32419,-1.96713 -2.89562,-3.8198 -4.71429,-5.55688c-1.04762,0.37009 -2.09524,0.74129 -3.14286,1.11138c-0.63381,-2.20163 -1.68143,-2.57283 -3.14286,-1.11138c-2.64943,-2.72065 -5.44344,-2.72065 -8.38097,0c-1.96219,0.6546 -3.70858,-0.08669 -5.2381,-2.22275c-0.99838,2.325 -2.39486,2.69508 -4.19048,1.11138c-0.33943,2.29944 -1.21314,2.66952 -2.61905,1.11138c-1.30743,0.60014 -2.53,1.34143 -3.66667,2.22275c-3.44248,-0.42343 -7.10915,-0.42343 -11.00002,0c-3.04543,-1.23807 -3.56924,-3.09073 -1.57143,-5.55688c4.4461,-0.12781 8.98544,0.61348 13.61907,2.22275c0.95857,-0.92022 1.65629,-2.03159 2.09524,-3.33413c4.00086,-0.45455 8.01639,-0.45455 12.04764,0c-0.4641,-4.47773 1.45724,-6.70048 5.76191,-6.66825c2.37181,3.80313 5.51468,4.9145 9.42859,3.33413c4.24496,3.29189 5.81639,7.73739 4.71429,13.3365z" fill="#80888f"/>
   </g>
   <g stroke="null" id="svg_135">
    <path stroke="null" id="svg_136" opacity="0.471" d="m256.56678,28.52702c0,16.67063 0,33.34126 0,50.01188c0,10.37246 0,20.74604 0,31.11851c-0.45886,1.11804 -1.15657,1.11804 -2.09524,0c0,-0.37009 0,-0.74129 0,-1.11138c0.69876,-26.673 1.39648,-53.34601 2.09524,-80.01901z" fill="#333638"/>
   </g>
   <g stroke="null" id="svg_137">
    <path stroke="null" id="svg_138" opacity="0.004" d="m47.04265,105.21191c-0.13724,-0.82131 0.03771,-1.56259 0.52381,-2.22275c0.72495,1.04136 0.55,1.78153 -0.52381,2.22275z" fill="#000000"/>
   </g>
   <g stroke="null" id="svg_139">
    <path stroke="null" id="svg_140" opacity="0.004" d="m155.9952,102.98916c1.18276,2.36501 1.35772,4.95784 0.52381,7.77963c-0.52067,-2.56728 -0.69457,-5.16012 -0.52381,-7.77963z" fill="#000000"/>
   </g>
   <g stroke="null" id="svg_141">
    <path stroke="null" id="svg_142" opacity="0.998" d="m275.42396,98.54366c0,9.26109 0,18.52329 0,27.78438c-0.33733,-5.84917 -1.90876,-11.40604 -4.71429,-16.67063c-3.69705,-1.95713 -7.36373,-3.80868 -11.00002,-5.55688c-0.71552,0.40343 -1.41429,0.77352 -2.09524,1.11138c-0.17391,-8.15861 0,-16.30832 0.52381,-24.45025c0.43371,-0.5079 0.95753,-0.8791 1.57143,-1.11138c0.87267,1.11138 1.74638,2.22275 2.61905,3.33413c0.34886,-0.37009 0.69876,-0.74129 1.04762,-1.11138c0.56676,3.01072 2.13819,5.23347 4.71429,6.66825c-0.21895,0.65127 -0.56886,1.20695 -1.04762,1.66706c1.01514,1.9538 2.23772,2.50949 3.66667,1.66706c1.77991,2.12162 3.35134,4.34437 4.71429,6.66825z" fill="#92989f"/>
   </g>
   <g stroke="null" id="svg_143">
    <path stroke="null" id="svg_144" opacity="0.996" d="m152.85234,112.99154c0,4.81559 0,9.63229 0,14.44788c-0.34886,1.11138 -1.04762,1.85266 -2.09524,2.22275c-0.71762,-2.12717 -1.24143,-4.34992 -1.57143,-6.66825c-2.0481,-1.05914 -3.79448,-2.54172 -5.2381,-4.4455c-3.97886,0.71573 -7.82049,-0.02556 -11.52383,-2.22275c-4.61058,2.87735 -9.14992,2.87735 -13.61907,0c-1.22676,0.93356 -2.44934,1.85933 -3.66667,2.77844c2.794,2.96404 5.58696,5.92696 8.38097,8.891c-0.23886,0.44344 -0.58876,0.62793 -1.04762,0.55569c-4.88925,-4.4455 -9.42859,-9.26109 -13.61907,-14.44788c0.45886,0.07224 0.80876,-0.11225 1.04762,-0.55569c-1.26762,-1.15472 -2.31524,-2.45169 -3.14286,-3.88981c3.89086,-0.42343 7.55754,-0.42343 11.00002,0c1.13667,-0.88132 2.35924,-1.62261 3.66667,-2.22275c1.40591,1.55815 2.27962,1.18806 2.61905,-1.11138c1.79562,1.58371 3.1921,1.21362 4.19048,-1.11138c1.52953,2.13606 3.27591,2.87735 5.2381,2.22275c2.93753,-2.72065 5.73153,-2.72065 8.38097,0c1.46143,-1.46146 2.50905,-1.09026 3.14286,1.11138c1.04762,-0.37009 2.09524,-0.74129 3.14286,-1.11138c1.81867,1.73708 3.3901,3.58974 4.71429,5.55688z" fill="#727a80"/>
   </g>
   <g stroke="null" id="svg_145">
    <path stroke="null" id="svg_146" opacity="0.996" d="m254.47154,109.65741c0.93867,1.11804 1.63638,1.11804 2.09524,0c0.97848,-1.18695 1.32838,-2.66841 1.04762,-4.4455c0.68095,-0.33786 1.37972,-0.70795 2.09524,-1.11138c3.63629,1.74819 7.30296,3.59974 11.00002,5.55688c2.80553,5.26458 4.37696,10.82146 4.71429,16.67063c0,5.18679 0,10.37246 0,15.55925c-0.34886,0 -0.69876,0 -1.04762,0c0.17286,-3.35413 -0.0021,-6.68826 -0.52381,-10.00238c-3.70858,-3.96316 -6.50258,-8.03858 -8.38097,-12.22513c-0.34886,0.37009 -0.69876,0.74129 -1.04762,1.11138c-4.74467,-2.27387 -9.28401,-4.12542 -13.61907,-5.55688c-0.69876,0.74129 -1.39648,1.48146 -2.09524,2.22275c-1.59762,-0.43121 -3.34401,-0.43121 -5.2381,0c-0.43895,-1.30253 -1.13667,-2.41391 -2.09524,-3.33413c-0.902,1.387 -1.42581,2.86846 -1.57143,4.4455c-4.53934,-8.14971 -9.07973,-16.30054 -13.61907,-24.45025c1.77048,-2.24609 3.69077,-1.876 5.76191,1.11138c1.20162,-1.0647 2.24924,-0.69461 3.14286,1.11138c0.75219,-1.05692 1.62486,-1.24141 2.61905,-0.55569c1.58715,2.91514 3.68239,4.02651 6.28572,3.33413c4.32144,2.72843 7.81315,6.24815 10.47621,10.55806z" fill="#7e858b"/>
   </g>
   <g stroke="null" id="svg_147">
    <path stroke="null" id="svg_148" opacity="0.004" d="m155.9952,114.10291c1.07381,0.44122 1.24876,1.18139 0.52381,2.22275c-0.4861,-0.66016 -0.66105,-1.40144 -0.52381,-2.22275z" fill="#000000"/>
   </g>
   <g stroke="null" id="svg_149">
    <path stroke="null" id="svg_150" opacity="0.004" d="m318.3764,114.10291c1.07381,0.44122 1.24876,1.18139 0.52381,2.22275c-0.4861,-0.66016 -0.66105,-1.40144 -0.52381,-2.22275z" fill="#000000"/>
   </g>
   <g stroke="null" id="svg_151">
    <path stroke="null" id="svg_152" opacity="0.996" d="m206.28099,141.88729c-2.25029,0.12336 -2.59915,-0.61792 -1.04762,-2.22275c-0.47667,-3.05739 -1.87419,-5.46574 -4.19048,-7.22394c0.34886,-0.37009 0.69876,-0.74129 1.04762,-1.11138c-1.32629,-0.34341 -2.54886,-0.8991 -3.66667,-1.66706c-0.34886,0.37009 -0.69876,0.74129 -1.04762,1.11138c-2.05438,-3.293 -4.49848,-6.25593 -7.33334,-8.891c-0.24305,1.37477 -0.76686,2.48615 -1.57143,3.33413c0,-4.4455 0,-8.891 0,-13.3365c0.69667,-2.4428 1.39543,-5.03564 2.09524,-7.77963c11.54792,8.29086 16.78603,20.88607 15.71431,37.78676z" fill="#767d83"/>
   </g>
   <g stroke="null" id="svg_153">
    <path stroke="null" id="svg_154" opacity="0.996" d="m315.23354,105.21191c-0.32476,6.95499 0.02514,13.80773 1.04762,20.56044c14.6625,0.55569 29.32919,0.74129 44.00007,0.55569c0,5.18679 0,10.37246 0,15.55925c-1.02562,-3.47305 -1.37553,-7.17726 -1.04762,-11.11375c-5.51258,0.33897 -10.92459,-0.03223 -16.23812,-1.11138c-4.50582,2.01937 -9.22011,2.01937 -14.14288,0c-1.84172,0.69794 -3.41315,1.80932 -4.71429,3.33413c-5.11134,-3.54195 -10.00059,-7.24617 -14.66669,-11.11375c-1.8941,0.43121 -3.64048,0.43121 -5.2381,0c-1.42581,-2.90958 -3.3461,-3.65087 -5.76191,-2.22275c-0.17391,-7.04834 0,-14.08668 0.52381,-21.11613c1.39648,2.96404 3.49172,5.18679 6.28572,6.66825c1.39648,0 2.794,0 4.19048,0c0.34886,-0.74129 0.69876,-1.48146 1.04762,-2.22275c1.24876,2.38946 2.82019,3.13074 4.71429,2.22275z" fill="#8b9299"/>
   </g>
   <g stroke="null" id="svg_155">
    <path stroke="null" id="svg_156" opacity="0.996" d="m150.7571,129.66216c0,0.37009 0,0.74129 0,1.11138c-4.51839,4.42105 -9.05773,8.86655 -13.61907,13.3365c-5.2601,-4.83893 -10.14935,-10.02572 -14.66669,-15.55925c0.45886,0.07224 0.80876,-0.11225 1.04762,-0.55569c-2.794,-2.96404 -5.58696,-5.92696 -8.38097,-8.891c1.21734,-0.91911 2.43991,-1.84488 3.66667,-2.77844c4.46915,2.87735 9.00849,2.87735 13.61907,0c3.70334,2.19719 7.54496,2.93848 11.52383,2.22275c1.44362,1.90379 3.19,3.38636 5.2381,4.4455c0.33,2.31833 0.85381,4.54108 1.57143,6.66825z" fill="#60686f"/>
   </g>
   <g stroke="null" id="svg_157">
    <path stroke="null" id="svg_158" opacity="0.005" d="m317.32878,122.99391c0,-0.37009 0,-0.74129 0,-1.11138c4.90182,-0.18449 9.79002,0.00111 14.66669,0.55569c-4.38744,0.1956 -8.57792,0.75129 -12.57145,1.66706c-0.34886,0 -0.69876,0 -1.04762,0c0,-0.74129 -0.34886,-1.11138 -1.04762,-1.11138z" fill="#000000"/>
   </g>
   <g stroke="null" id="svg_159">
    <path stroke="null" id="svg_160" opacity="0.004" d="m333.04309,122.99391c0.78676,-1.19251 1.83438,-1.37811 3.14286,-0.55569c-0.99314,0.53679 -2.04077,0.72128 -3.14286,0.55569z" fill="#000000"/>
   </g>
   <g stroke="null" id="svg_161">
    <path stroke="null" id="svg_162" opacity="0.004" d="m338.2812,122.99391c1.15343,-1.22029 2.54991,-1.40589 4.19048,-0.55569c-1.35457,0.54457 -2.7521,0.73017 -4.19048,0.55569z" fill="#000000"/>
   </g>
   <g stroke="null" id="svg_163">
    <path stroke="null" id="svg_164" opacity="0.004" d="m343.5193,122.99391c1.15343,-1.22029 2.54991,-1.40589 4.19048,-0.55569c-1.35457,0.54457 -2.7521,0.73017 -4.19048,0.55569z" fill="#000000"/>
   </g>
   <g stroke="null" id="svg_165">
    <path stroke="null" id="svg_166" opacity="0.004" d="m348.7574,121.88254c1.39648,0.74129 1.39648,0.74129 0,0z" fill="#000000"/>
   </g>
   <g stroke="null" id="svg_167">
    <path stroke="null" id="svg_168" opacity="0.004" d="m350.85264,122.99391c1.15343,-1.22029 2.54991,-1.40589 4.19048,-0.55569c-1.35457,0.54457 -2.7521,0.73017 -4.19048,0.55569z" fill="#000000"/>
   </g>
   <g stroke="null" id="svg_169">
    <path stroke="null" id="svg_170" opacity="0.004" d="m356.09075,121.88254c1.39648,0.74129 1.39648,0.74129 0,0z" fill="#000000"/>
   </g>
   <g stroke="null" id="svg_171">
    <path stroke="null" id="svg_172" opacity="0.996" d="m43.89979,47.4204c0.34886,0 0.69876,0 1.04762,0c-0.17495,19.638 0,39.27155 0.52381,58.90289c1.08848,1.34476 2.31105,2.45614 3.66667,3.33413c19.49936,20.31483 39.0553,40.68967 58.66676,61.12564c0.24829,1.43479 -0.10057,2.54616 -1.04762,3.33413c-10.47621,-11.85504 -21.30127,-23.33888 -32.47624,-34.45263c-3.68972,-5.98476 -8.40401,-8.57759 -14.14288,-7.77963c-1.15343,-2.10494 -2.54991,-2.84623 -4.19048,-2.22275c-0.34886,0.74129 -0.69876,1.48146 -1.04762,2.22275c-1.54419,-3.13963 -3.11562,-3.50972 -4.71429,-1.11138c-1.38286,-1.96713 -2.95429,-2.33722 -4.71429,-1.11138c-0.87267,-0.92578 -1.74638,-1.85266 -2.61905,-2.77844c3.41839,-0.96579 3.76724,-2.44836 1.04762,-4.4455c-0.21686,-2.92514 0.132,-5.51798 1.04762,-7.77963c-0.69876,-1.11138 -1.39648,-2.22275 -2.09524,-3.33413c1.02143,-6.38041 1.37029,-12.86417 1.04762,-19.44907c0,-14.81797 0,-29.63704 0,-44.45501z" fill="#8a9096"/>
   </g>
   <g stroke="null" id="svg_173">
    <path stroke="null" id="svg_174" opacity="0.231" d="m212.56672,69.6479c3.99982,8.48535 8.53916,16.63618 13.61907,24.45025c4.53934,8.14971 9.07973,16.30054 13.61907,24.45025c0.55105,1.92268 1.59867,3.40525 3.14286,4.4455c3.04229,6.93276 6.53506,13.60101 10.47621,20.00475c-4.1182,-4.59998 -8.48258,-9.04548 -13.09526,-13.3365c-3.66353,-7.7774 -7.85401,-15.18694 -12.57145,-22.2275c1.03505,-2.68953 0.68619,-5.28237 -1.04762,-7.77963c-4.10458,-7.69294 -8.64392,-15.10137 -13.61907,-22.2275c-1.05705,-1.69485 -1.58086,-3.54751 -1.57143,-5.55688c-1.04762,0 -2.09524,0 -3.14286,0c0,2.96404 0,5.92696 0,8.891c0.12048,19.59243 0.12048,39.59719 0,60.01426c-0.34886,0 -0.69876,0 -1.04762,0c0,-9.26109 0,-18.52329 0,-27.78438c0,-7.40954 0,-14.81797 0,-22.2275c-0.17391,-9.63896 0,-19.27125 0.52381,-28.89576c1.59657,2.66508 3.168,5.25792 4.71429,7.77963z" fill="#111213"/>
   </g>
   <g stroke="null" id="svg_175">
    <path stroke="null" id="svg_176" opacity="0.997" d="m274.37634,141.88729c-2.81496,0.18227 -5.60896,-0.00333 -8.38097,-0.55569c2.06696,-0.55013 4.1622,-0.73573 6.28572,-0.55569c0.00943,-2.00937 -0.51438,-3.86203 -1.57143,-5.55688c-2.32991,-2.36278 -5.29782,-4.77113 -8.90478,-7.22394c-1.68876,-0.80019 -3.2602,-0.6157 -4.71429,0.55569c-3.55143,-2.05827 -7.0442,-3.91093 -10.47621,-5.55688c-0.43371,0.5079 -0.95753,0.8791 -1.57143,1.11138c-0.52172,-1.22585 -0.87057,-2.33722 -1.04762,-3.33413c-0.836,0.5079 -1.18486,1.24919 -1.04762,2.22275c-1.54419,-1.04025 -2.59181,-2.52282 -3.14286,-4.4455c0.14562,-1.57704 0.66943,-3.0585 1.57143,-4.4455c0.95857,0.92022 1.65629,2.03159 2.09524,3.33413c1.8941,-0.43121 3.64048,-0.43121 5.2381,0c0.69876,-0.74129 1.39648,-1.48146 2.09524,-2.22275c4.33505,1.43145 8.87439,3.283 13.61907,5.55688c0.34886,-0.37009 0.69876,-0.74129 1.04762,-1.11138c1.87838,4.18655 4.67239,8.26196 8.38097,12.22513c0.52172,3.31412 0.69667,6.64825 0.52381,10.00238z" fill="#6f777e"/>
   </g>
   <g stroke="null" id="svg_177">
    <path stroke="null" id="svg_178" opacity="0.004" d="m362.37647,127.43941c1.07381,0.44122 1.24876,1.18139 0.52381,2.22275c-0.4861,-0.66016 -0.66105,-1.40144 -0.52381,-2.22275z" fill="#000000"/>
   </g>
   <g stroke="null" id="svg_179">
    <path stroke="null" id="svg_180" opacity="0.996" d="m43.89979,91.87541c0.32267,6.5849 -0.02619,13.06866 -1.04762,19.44907c0.69876,1.11138 1.39648,2.22275 2.09524,3.33413c-0.91562,2.26165 -1.26448,4.85449 -1.04762,7.77963c2.71962,1.99714 2.37077,3.47972 -1.04762,4.4455c0.87267,0.92578 1.74638,1.85266 2.61905,2.77844c1.76,-1.22585 3.33143,-0.85576 4.71429,1.11138c1.59867,-2.39835 3.1701,-2.02826 4.71429,1.11138c0.34886,-0.74129 0.69876,-1.48146 1.04762,-2.22275c1.64057,-0.62348 3.03705,0.11781 4.19048,2.22275c5.73887,-0.79797 10.45316,1.79487 14.14288,7.77963c-3.37648,-1.47368 -6.51934,-0.918 -9.42859,1.66706c0.34886,0.37009 0.69876,0.74129 1.04762,1.11138c-5.97249,3.86536 -5.97249,8.31086 0,13.3365c-0.23886,0.44344 -0.58876,0.62793 -1.04762,0.55569c-11.17497,-11.11375 -22.00003,-22.59759 -32.47624,-34.45263c0.43791,-0.80241 1.13562,-1.3581 2.09524,-1.66706c-0.34886,-0.37009 -0.69876,-0.74129 -1.04762,-1.11138c2.0261,-2.52393 2.0261,-4.74668 0,-6.66825c1.65629,-0.78574 3.22772,-1.71152 4.71429,-2.77844c0.20848,-2.11384 1.08219,-3.7809 2.61905,-5.00119c-1.00362,-1.27475 -0.65476,-2.38612 1.04762,-3.33413c-0.62543,-1.80932 -0.27552,-3.66198 1.04762,-5.55688c-0.82448,-1.45924 -0.47562,-2.75621 1.04762,-3.88981z" fill="#7f858c"/>
   </g>
   <g stroke="null" id="svg_181">
    <path stroke="null" id="svg_182" opacity="0.995" d="m206.28099,141.88729c0.34886,0 0.69876,0 1.04762,0c-6.08668,1.10026 -12.3724,1.47035 -18.85717,1.11138c0,-5.92696 0,-11.85504 0,-17.782c0.80457,-0.84798 1.32838,-1.95935 1.57143,-3.33413c2.83486,2.63507 5.27896,5.598 7.33334,8.891c0.34886,-0.37009 0.69876,-0.74129 1.04762,-1.11138c1.11781,0.76796 2.34038,1.32365 3.66667,1.66706c-0.34886,0.37009 -0.69876,0.74129 -1.04762,1.11138c2.31629,1.7582 3.71382,4.16655 4.19048,7.22394c-1.55153,1.60483 -1.20267,2.34611 1.04762,2.22275z" fill="#616970"/>
   </g>
   <g stroke="null" id="svg_183">
    <path stroke="null" id="svg_184" opacity="0.996" d="m274.37634,141.88729c0.34886,0 0.69876,0 1.04762,0c-7.13744,1.10137 -14.47078,1.47257 -22.00003,1.11138c-3.94115,-6.40374 -7.43392,-13.072 -10.47621,-20.00475c-0.13724,-0.97356 0.21162,-1.71485 1.04762,-2.22275c0.17705,0.9969 0.52591,2.10828 1.04762,3.33413c0.61391,-0.23228 1.13772,-0.60348 1.57143,-1.11138c3.43201,1.64595 6.92477,3.49861 10.47621,5.55688c1.4541,-1.17139 3.02553,-1.35588 4.71429,-0.55569c3.60696,2.45281 6.57487,4.86116 8.90478,7.22394c1.05705,1.69485 1.58086,3.54751 1.57143,5.55688c-2.12353,-0.18004 -4.21877,0.00556 -6.28572,0.55569c2.772,0.55235 5.56601,0.73795 8.38097,0.55569z" fill="#60676e"/>
   </g>
   <g stroke="null" id="svg_185">
    <path stroke="null" id="svg_186" opacity="0.996" d="m360.28123,141.88729c0,0.74129 -0.34886,1.11138 -1.04762,1.11138c-20.78479,0.36675 -41.38835,-0.00333 -61.80962,-1.11138c0,-7.03834 0,-14.07779 0,-21.11613c0.69876,0 1.04762,-0.37009 1.04762,-1.11138c2.41581,-1.42812 4.3361,-0.68683 5.76191,2.22275c1.59762,0.43121 3.34401,0.43121 5.2381,0c4.6661,3.86759 9.55535,7.5718 14.66669,11.11375c1.30114,-1.52481 2.87258,-2.63618 4.71429,-3.33413c4.92277,2.01937 9.63706,2.01937 14.14288,0c5.31353,1.07915 10.72554,1.45034 16.23812,1.11138c-0.32791,3.93649 0.022,7.6407 1.04762,11.11375z" fill="#798086"/>
   </g>
   <g stroke="null" id="svg_187">
    <path stroke="null" id="svg_188" opacity="0.159" d="m23.995,111.88016c-0.18019,1.10248 0.16971,1.84266 1.04762,2.22275c2.09524,2.96404 4.53934,5.55688 7.33334,7.77963c10.47621,11.85504 21.30127,23.33888 32.47624,34.45263c1.39648,2.22275 3.14286,4.07541 5.2381,5.55688c7.47058,8.48202 15.15279,16.81733 23.04765,25.00594c3.46239,-1.23807 6.25639,-3.64642 8.38097,-7.22394c1.04762,-0.74129 2.09524,-1.48146 3.14286,-2.22275c-2.05124,4.98007 -5.1941,9.23997 -9.42859,12.78081c-1.39648,0.74129 -2.794,0.74129 -4.19048,0c-22.35832,-23.33888 -44.88216,-46.86336 -67.57153,-70.57233c-1.826,-2.7751 -1.65105,-5.36794 0.52381,-7.77963z" fill="#0a0b0b"/>
   </g>
   <g stroke="null" id="svg_189">
    <path stroke="null" id="svg_190" opacity="0.004" d="m277.5192,141.88729c-0.13724,-0.82131 0.03771,-1.56259 0.52381,-2.22275c0.72495,1.04136 0.55,1.78153 -0.52381,2.22275z" fill="#000000"/>
   </g>
   <g stroke="null" id="svg_191">
    <path stroke="null" id="svg_192" opacity="0.004" d="m183.23334,147.44417c-0.69876,0.74129 -0.69876,0.74129 0,0z" fill="#000000"/>
   </g>
   <g stroke="null" id="svg_193">
    <path stroke="null" id="svg_194" opacity="0.004" d="m136.09041,151.88967c1.39648,0.74129 1.39648,0.74129 0,0z" fill="#000000"/>
   </g>
   <g stroke="null" id="svg_195">
    <path stroke="null" id="svg_196" opacity="0.004" d="m341.42406,151.88967c0.34886,0 0.69876,0 1.04762,0c-0.19381,0.74462 -0.54372,0.74462 -1.04762,0z" fill="#000000"/>
   </g>
   <g stroke="null" id="svg_197">
    <path stroke="null" id="svg_198" opacity="0.995" d="m74.28079,139.66454c11.17497,11.11375 22.00003,22.59759 32.47624,34.45263c-0.69876,1.11138 -1.39648,2.22275 -2.09524,3.33413c-1.04762,0.74129 -2.09524,1.48146 -3.14286,2.22275c-0.0901,-1.10693 0.25981,-2.03271 1.04762,-2.77844c-1.74638,-2.59284 -3.84162,-4.81559 -6.28572,-6.66825c-2.4001,0.90133 -4.32144,-0.02556 -5.76191,-2.77844c-0.34886,0.37009 -0.69876,0.74129 -1.04762,1.11138c-2.57924,-1.27808 -5.02439,-2.75954 -7.33334,-4.4455c-2.288,0.67572 -4.38324,-0.06557 -6.28572,-2.22275c-0.69876,0.74129 -1.39648,1.48146 -2.09524,2.22275c-1.8281,-3.06517 -3.74943,-6.02921 -5.76191,-8.891c-0.34886,0.37009 -0.69876,0.74129 -1.04762,1.11138c1.52115,1.60038 2.56877,3.45193 3.14286,5.55688c-2.09524,-1.48146 -3.84162,-3.33413 -5.2381,-5.55688c0.45886,0.07224 0.80876,-0.11225 1.04762,-0.55569c-5.97249,-5.02564 -5.97249,-9.47114 0,-13.3365c-0.34886,-0.37009 -0.69876,-0.74129 -1.04762,-1.11138c2.90924,-2.58506 6.0521,-3.14075 9.42859,-1.66706z" fill="#676f75"/>
   </g>
   <g stroke="null" id="svg_199">
    <path stroke="null" id="svg_200" opacity="0.996" d="m101.51893,179.67405c-2.12457,3.57752 -4.91858,5.98587 -8.38097,7.22394c-7.89487,-8.18861 -15.57707,-16.52393 -23.04765,-25.00594c-0.5741,-2.10494 -1.62172,-3.9565 -3.14286,-5.55688c0.34886,-0.37009 0.69876,-0.74129 1.04762,-1.11138c2.01248,2.86179 3.93382,5.82583 5.76191,8.891c0.69876,-0.74129 1.39648,-1.48146 2.09524,-2.22275c1.90248,2.15718 3.99772,2.89847 6.28572,2.22275c2.30896,1.68596 4.7541,3.16742 7.33334,4.4455c0.34886,-0.37009 0.69876,-0.74129 1.04762,-1.11138c1.44048,2.75288 3.36181,3.67976 5.76191,2.77844c2.4441,1.85266 4.53934,4.07541 6.28572,6.66825c-0.78781,0.74573 -1.13772,1.67151 -1.04762,2.77844z" fill="#555d63"/>
   </g>
  </g>
 </g>
</svg>